<svg width="42" height="42" viewBox="0 0 42 42" fill="none" xmlns="http://www.w3.org/2000/svg">
<circle cx="21" cy="21" r="20.5" fill="white" stroke="#E5E7EB"/>
<path d="M13.5 14.75C12.8086 14.75 12.25 15.3086 12.25 16V17.5586L19.8906 23.1602C20.5508 23.6445 21.4492 23.6445 22.1094 23.1602L29.75 17.5586V16C29.75 15.3086 29.1914 14.75 28.5 14.75H13.5ZM12.25 19.1094V26C12.25 26.6914 12.8086 27.25 13.5 27.25H28.5C29.1914 27.25 29.75 26.6914 29.75 26V19.1094L22.8477 24.168C21.7461 24.9727 20.25 24.9727 19.1523 24.168L12.25 19.1094ZM11 16C11 14.6211 12.1211 13.5 13.5 13.5H28.5C29.8789 13.5 31 14.6211 31 16V26C31 27.3789 29.8789 28.5 28.5 28.5H13.5C12.1211 28.5 11 27.3789 11 26V16Z" fill="black"/>
</svg>
