<svg width="42" height="42" viewBox="0 0 42 42" fill="none" xmlns="http://www.w3.org/2000/svg">
<circle cx="21" cy="21" r="20.5" fill="white" stroke="#E5E7EB"/>
<path d="M18.7542 24.4818C18.7542 25.3391 18.3 26.7418 17.225 26.7418C16.15 26.7418 15.6958 25.3391 15.6958 24.4818C15.6958 23.6246 16.15 22.2219 17.225 22.2219C18.3 22.2219 18.7542 23.6246 18.7542 24.4818ZM31 22.4105C31 23.7189 30.8667 25.1053 30.2708 26.307C28.6917 29.4488 24.35 29.375 21.2417 29.375C18.0833 29.375 13.4833 29.4857 11.8417 26.307C11.2333 25.1176 11 23.7189 11 22.4105C11 20.692 11.5792 19.0678 12.7292 17.7512C12.5125 17.1031 12.4083 16.4223 12.4083 15.7496C12.4083 14.8678 12.6125 14.4248 13.0167 13.625C14.9042 13.625 16.1125 13.9941 17.55 15.1016C18.7583 14.8186 20 14.6914 21.2458 14.6914C22.3708 14.6914 23.5042 14.8104 24.5958 15.0688C26.0125 13.9736 27.2208 13.625 29.0875 13.625C29.4958 14.4248 29.6958 14.8678 29.6958 15.7496C29.6958 16.4223 29.5875 17.0908 29.375 17.7266C30.5208 19.0555 31 20.692 31 22.4105ZM28.3208 24.4818C28.3208 22.6813 27.2083 21.0939 25.2583 21.0939C24.4708 21.0939 23.7167 21.2334 22.925 21.34C22.3042 21.4344 21.6833 21.4713 21.0458 21.4713C20.4125 21.4713 19.7917 21.4344 19.1667 21.34C18.3875 21.2334 17.625 21.0939 16.8333 21.0939C14.8833 21.0939 13.7708 22.6813 13.7708 24.4818C13.7708 28.083 17.1208 28.6367 20.0375 28.6367H22.0458C24.975 28.6367 28.3208 28.0871 28.3208 24.4818ZM24.8792 22.2219C23.8042 22.2219 23.35 23.6246 23.35 24.4818C23.35 25.3391 23.8042 26.7418 24.8792 26.7418C25.9542 26.7418 26.4083 25.3391 26.4083 24.4818C26.4083 23.6246 25.9542 22.2219 24.8792 22.2219Z" fill="black"/>
</svg>
