<svg width="42" height="42" viewBox="0 0 42 42" fill="none" xmlns="http://www.w3.org/2000/svg">
<circle cx="21" cy="21" r="20.5" fill="white" stroke="#E5E7EB"/>
<path d="M15.4768 30.125H11.3304V16.6889H15.4768V30.125ZM13.4013 14.8561C12.0754 14.8561 11 13.751 11 12.4168C11 11.776 11.253 11.1614 11.7033 10.7082C12.1537 10.2551 12.7645 10.0005 13.4013 10.0005C14.0382 10.0005 14.649 10.2551 15.0993 10.7082C15.5497 11.1614 15.8027 11.776 15.8027 12.4168C15.8027 13.751 14.7268 14.8561 13.4013 14.8561ZM30.9955 30.125H26.858V23.5844C26.858 22.0256 26.8268 20.0266 24.7022 20.0266C22.5464 20.0266 22.2161 21.7202 22.2161 23.4721V30.125H18.0741V16.6889H22.0509V18.5217H22.1089C22.6625 17.4661 24.0147 16.352 26.0321 16.352C30.2286 16.352 31 19.1327 31 22.7444V30.125H30.9955Z" fill="black"/>
</svg>
