<svg width="42" height="42" viewBox="0 0 42 42" fill="none" xmlns="http://www.w3.org/2000/svg">
<circle cx="21" cy="21" r="20.5" fill="white" stroke="#E5E7EB"/>
<g clip-path="url(#clip0_56_168)">
<path d="M25.6797 21.75C25.0391 21.4766 24.2969 21.6563 23.8555 22.1954L22.5586 23.7813C20.7617 22.7383 19.2617 21.2383 18.2188 19.4415L19.8008 18.1485C20.3398 17.7071 20.5234 16.9649 20.2461 16.3243L18.3711 11.9493C18.0781 11.2618 17.3398 10.879 16.6094 11.0352L12.2344 11.9727C11.5156 12.125 11 12.7618 11 13.5C11 22.7461 18.168 30.3165 27.25 30.9571C27.4258 30.9688 27.6055 30.9805 27.7852 30.9883C27.7852 30.9883 27.7852 30.9883 27.7891 30.9883C28.0273 30.9961 28.2617 31.004 28.5039 31.004C29.2422 31.004 29.8789 30.4883 30.0312 29.7696L30.9688 25.3946C31.125 24.6641 30.7422 23.9258 30.0547 23.6329L25.6797 21.7579V21.75ZM28.4883 29.75C19.5195 29.7422 12.25 22.4727 12.25 13.5C12.25 13.3516 12.3516 13.2266 12.4961 13.1954L16.8711 12.2579C17.0156 12.2266 17.1641 12.3047 17.2227 12.4415L19.0977 16.8165C19.1523 16.9454 19.1172 17.0938 19.0078 17.1797L17.4219 18.4766C16.9492 18.8633 16.8242 19.5391 17.1328 20.0704C18.2852 22.0586 19.9414 23.7149 21.9258 24.8633C22.457 25.1719 23.1328 25.0469 23.5195 24.5743L24.8164 22.9883C24.9062 22.879 25.0547 22.8438 25.1797 22.8985L29.5547 24.7735C29.6914 24.8321 29.7695 24.9805 29.7383 25.125L28.8008 29.5C28.7695 29.6446 28.6406 29.7461 28.4961 29.7461C28.4922 29.7461 28.4883 29.7461 28.4844 29.7461L28.4883 29.75Z" fill="black"/>
</g>
<defs>
<clipPath id="clip0_56_168">
<rect width="20" height="20" fill="white" transform="translate(11 11)"/>
</clipPath>
</defs>
</svg>
